<svg xmlns="http://www.w3.org/2000/svg" width="222.329" height="51.592" viewBox="0 0 222.329 51.592"><defs><style>.a{fill:none;}.b{fill:#fff;}</style></defs><g transform="translate(-0.172 -0.443)"><rect class="a" width="222.329" height="51.592" transform="translate(0.172 0.443)"/><g transform="translate(8.471 2.978)"><path class="b" d="M85.728,96.944a13.442,13.442,0,0,1-1.438.206l-1.069,1.233c-.329.082-.7.206-1.069.329-.123.041-.288.082-.452.123l2.63-3.041a18.039,18.039,0,0,0,2.713-.493Z" transform="translate(-52.026 -60.735)"/><path class="b" d="M89.78,66.41h0L91.67,65.3a11.974,11.974,0,0,1-.206,1.644l-1.726.986h0l-.411.247c-.288.123-.617.288-1.028.452l.452-1.644Z" transform="translate(-55.913 -43.065)"/><g transform="translate(0 0.206)"><path class="b" d="M58.422,17.1a14.493,14.493,0,0,1,1.6,1.808c.329.575.781,1.849,1.11,2.672l-1.069.822A4.84,4.84,0,0,0,59.45,21l-.37.575c-.37-.7-.945-1.767-1.48-2.713C57.806,18.292,58.175,17.634,58.422,17.1Z" transform="translate(-37.831 -14.881)"/><path class="b" d="M51.469,11.7c.329.781.7,1.726,1.027,2.507,0,.041-.041.041-.041.082a3.034,3.034,0,0,0-.493-.658l-.493-.617-.534.575c-.123.164-.288.37-.493.658,0-.041-.041-.041-.041-.082C50.77,13.385,51.14,12.44,51.469,11.7Z" transform="translate(-33.59 -11.7)"/><path class="b" d="M40.969,18.908a9.908,9.908,0,0,1,1.6-1.808c.288.534.616,1.192.863,1.767-.534.945-1.11,2.014-1.48,2.713l-.37-.616a7.01,7.01,0,0,0-.616,1.438L39.9,21.58C40.188,20.758,40.681,19.484,40.969,18.908Z" transform="translate(-27.406 -14.881)"/><path class="b" d="M13.241,76.158a29.223,29.223,0,0,0,4.521,1.521l.822,1.562-.206-.041L17.1,80.268l-.082-.164a35.955,35.955,0,0,1-4.768-1.685c-.082.74-.123,1.562-.164,2.219l-.041,1.726.123.206a.247.247,0,0,1-.164-.041L10.2,79.733l.9.452v-1.11a17.911,17.911,0,0,1,.37-3.576c.288.123.9.411,1.726.781Z" transform="translate(-9.912 -49.278)"/><path class="b" d="M49.484,23.835c-.534.9-1.069,1.932-1.438,2.63l-.945-.74V24.657c.534-1.028,1.644-3.124,2.425-4.357.781,1.192,1.891,3.329,2.425,4.357v1.069l-1.028.781v-.041C50.552,25.766,50.018,24.78,49.484,23.835Z" transform="translate(-31.646 -16.765)"/><path class="b" d="M44.931,39.8h0c.7.575,3.247,3,5.59,5.261l-.082,1.027-1.151.781c-1.849-1.767-3.493-3.329-4.4-4.151-.9.822-2.548,2.384-4.4,4.151l-1.11-.74L39.3,45.1C41.684,42.8,44.232,40.375,44.931,39.8Z" transform="translate(-27.052 -28.251)"/><path class="b" d="M62.683,58.277l-4.85,3.288-1.233-.74.164-1.274L62.847,55.4l4.315,5.138-.082,3.247a9.25,9.25,0,0,1-.986.329l.041-1.644Z" transform="translate(-37.242 -37.439)"/><path class="b" d="M62.584,90.63l-.74.123-6.083,1.808-.329,1.4c-.534-.123-.945-.206-1.233-.288l.74-3.329,7.069-2.1h.041L62.831,88l3.206,2.754L64.187,94.7c-.164.041-.37.082-.534.123L64.8,92.4Z" transform="translate(-35.828 -56.641)"/><path class="b" d="M46.715,107.225s-1.85.493-3.206.863l.041.164-.74-.205-.411-2.1c1.891-.493,4.4-1.151,4.4-1.151s2.507.7,4.4,1.151l-.411,2.1-.822.205.041-.164C48.565,107.759,46.715,107.225,46.715,107.225Z" transform="translate(-28.878 -66.536)"/><path class="b" d="M25.5,94.982a2.118,2.118,0,0,0-.452-.082L23.2,90.954,26.406,88.2l.781.247h0L34.215,90.5l.493,2.261-.247,1.151c-.247.041-.493.123-.781.164l-.329-1.438L27.269,90.83l-.74-.123-2.1,1.85Z" transform="translate(-17.569 -56.759)"/><path class="b" d="M43.829,73.054l-5.3,3.329.082.945-.863-.247L37.5,74.287,43.87,70.3l6.37,3.987-.247,2.795-.9.247.082-.945Z" transform="translate(-25.992 -46.215)"/><path class="b" d="M33.939,59.492l.164,1.274-1.233.781L27.98,58.218l-3.493,4.151.041,1.644c-.288-.082-.616-.206-.945-.329L23.5,60.437,27.815,55.3Z" transform="translate(-17.746 -37.38)"/><path class="b" d="M12.374,96.785,11.1,95.1a18.355,18.355,0,0,0,2.795.493l2.63,3.041c-.164-.041-.329-.082-.452-.123-.452-.123-.863-.247-1.192-.329l-1.027-1.192A14.286,14.286,0,0,1,12.374,96.785Z" transform="translate(-10.442 -60.823)"/><path class="b" d="M19.1,105.841V105.8c.37.123.822.247,1.315.411,1.11.288,3.781.822,4.562.945l.74.74-1.439,1.192-2.836-1.11C20.538,107.2,19.634,106.375,19.1,105.841Z" transform="translate(-15.154 -67.125)"/><path class="b" d="M36.1,118.222,31.54,117.03l-.781.658q-1.6-.74-2.959-1.48l1.274.041,2.26-1.85,5.754,1.521.123,2.3-1.069.617Z" transform="translate(-20.279 -72.19)"/><path class="b" d="M61.694,117.67l-.822-.7-4.562,1.192-.041.493-1.069-.575h.041l.123-2.261,5.754-1.521,2.26,1.849,1.274-.041C63.667,116.684,62.639,117.177,61.694,117.67Z" transform="translate(-36.417 -72.131)"/><path class="b" d="M77.358,105.841c-.575.534-1.48,1.4-2.466,2.178l-2.713,1.069L70.7,107.9l.74-.74c.781-.164,3.452-.658,4.562-.945.493-.123.945-.288,1.315-.411Z" transform="translate(-45.547 -67.125)"/><path class="b" d="M81.935,82.428c-.082,0-.164.041-.247.041l.123-.206-.041-1.726a21.742,21.742,0,0,0-.164-2.219A35.955,35.955,0,0,1,76.839,80l-.041.164L75.605,79.14l-.205.041.822-1.562a35.133,35.133,0,0,0,4.439-1.48v.041c.9-.37,1.562-.7,1.808-.781a22.039,22.039,0,0,1,.37,3.617v1.11l.9-.452Z" transform="translate(-48.315 -49.219)"/><path class="b" d="M78.946,46l1.644,4.521c0,.082.041.164.041.247l-.041.041h.041a31.444,31.444,0,0,1,0,3.411l-.863.493-.123.411V53.151l-.082-.822-1.151-3.041-2.137,1.48L75,49.206l.041-.493Z" transform="translate(-48.08 -31.903)"/><path class="b" d="M74.158,28.6l1.973,3.74a9.584,9.584,0,0,1,.247,1.028A38.045,38.045,0,0,0,73.5,29.217Z" transform="translate(-47.196 -21.654)"/><path class="b" d="M63.228,30.1a33.942,33.942,0,0,1,3.7,5.137c-.041.452-.082,1.151-.123,1.685l-.986.7c0-.206.041-.37.041-.534a41.778,41.778,0,0,0-2.795-4.069L60.186,35.2v.247c-.329-.288-.658-.617-.945-.9L59.2,33.1Z" transform="translate(-38.773 -22.538)"/><path class="b" d="M31.7,30.1l3.987,3.082v1.4c-.329.288-.658.617-1.028.945V35.2l-2.877-2.178a41.773,41.773,0,0,0-2.795,4.069c0,.164.041.329.041.493l-.9-.617c-.041-.493-.082-1.233-.123-1.685A33.4,33.4,0,0,1,31.7,30.1Z" transform="translate(-20.397 -22.538)"/><path class="b" d="M25.806,32.34l1.973-3.74.7.617A42.471,42.471,0,0,0,25.6,33.368,6.479,6.479,0,0,1,25.806,32.34Z" transform="translate(-18.983 -21.654)"/><path class="b" d="M17.236,50.809h0v-.041a.521.521,0,0,1,.041-.247L18.921,46l3.9,2.713.041.493-1.315,1.562-2.178-1.48-1.11,3.041-.082.822v1.726l-.041-.123-.863-.534A23.942,23.942,0,0,1,17.236,50.809Z" transform="translate(-14.03 -31.903)"/><path class="b" d="M11.391,66.469h0l1.027.617.452,1.644c-.534-.205-.986-.411-1.315-.575l-.205-.123h0l-1.644-.945A12.544,12.544,0,0,1,9.5,65.4Z" transform="translate(-9.5 -43.329)"/></g><g transform="translate(42.086)"><g transform="translate(157.495 33.291)"><path class="b" d="M497.648,92.693h-.9v3.124h-.658V92.693H495.1V92.2h2.672Z" transform="translate(-495.1 -92.2)"/><path class="b" d="M505.354,95.817V93.228l-.986,1.685h-.247l-.945-1.521v2.425H502.6V92.2h.534l1.192,1.891,1.11-1.891h.575v3.617Z" transform="translate(-499.518 -92.2)"/></g><g transform="translate(20.755)"><path class="b" d="M162.4,37.905V12.3h4.768V37.905Z" transform="translate(-162.4 -11.848)"/><path class="b" d="M198.315,37.905l-6.247-12.042a67.545,67.545,0,0,1-3.535-7.6l-.123.123c.205,2.137.247,4.85.288,7.11l.164,12.412H184.3V12.3h5.22L196.3,24.794a47.916,47.916,0,0,1,2.877,6.576l.123-.123c-.123-1.315-.411-4.973-.411-7.275L198.808,12.3h4.4V37.905Z" transform="translate(-175.299 -11.848)"/><path class="b" d="M240.6,37.905V12.3h15.495l-.616,3.493H245.244V22.78h8.59v3.535h-8.508v7.973h11.179v3.617Z" transform="translate(-208.46 -11.848)"/><path class="b" d="M293.142,37.668a11.487,11.487,0,0,1-8.836-3.7,13.275,13.275,0,0,1-3.206-9.124,15.2,15.2,0,0,1,1.849-7.768,12.28,12.28,0,0,1,17.221-3.863l-2.137,2.795a8.33,8.33,0,0,0-4.768-1.438,6.262,6.262,0,0,0-5.549,3.082c-.986,1.562-1.438,3.7-1.438,6.74,0,3.165.37,4.932,1.069,6.37a6.548,6.548,0,0,0,6.206,3.617,7.9,7.9,0,0,0,5.014-1.644l2.178,2.713A12.875,12.875,0,0,1,293.142,37.668Z" transform="translate(-232.314 -11.2)"/><path class="b" d="M343.337,37.845c-7.932,0-11.837-5.631-11.837-13.193,0-8.425,4.685-13.152,11.672-13.152,7.85,0,11.672,5.754,11.672,13.193C354.763,32.666,350.57,37.845,343.337,37.845Zm-.247-23.057c-4.685,0-6.453,3.493-6.453,9.617,0,6.576,1.808,10.234,6.576,10.234,4.151,0,6.288-2.795,6.288-9.7C349.5,18.692,348.1,14.788,343.09,14.788Z" transform="translate(-262 -11.377)"/><path class="b" d="M409.515,37.905l-6.247-12.042a67.571,67.571,0,0,1-3.535-7.6l-.123.123c.206,2.137.247,4.85.288,7.11l.164,12.412H395.5V12.3h5.261l6.781,12.494a47.91,47.91,0,0,1,2.877,6.576l.123-.123c-.123-1.315-.411-4.973-.411-7.275L410.049,12.3h4.4V37.905Z" transform="translate(-299.696 -11.848)"/><path class="b" d="M451.8,37.905V12.3h15.495l-.617,3.493H456.444V22.78h8.59v3.535h-8.508v7.973h11.179v3.617Z" transform="translate(-332.857 -11.848)"/></g><path class="b" d="M163.4,104.823V92h7.809l-.288,1.726h-5.179V97.22h4.316v1.767h-4.274v3.987h5.631v1.808H163.4Z" transform="translate(-142.234 -58.791)"/><path class="b" d="M214.3,104.893a9.334,9.334,0,0,1-4.6-1.151l.9-1.644a7.876,7.876,0,0,0,3.822,1.069c1.726,0,2.754-.74,2.754-2.055,0-.945-.658-1.521-2.1-1.891l-1.521-.37a4.783,4.783,0,0,1-2.713-1.521,3.094,3.094,0,0,1-.575-1.85c0-2.26,1.973-3.781,4.768-3.781a8.1,8.1,0,0,1,4.439,1.233l-1.069,1.48a6.528,6.528,0,0,0-3.329-.986c-1.4,0-2.3.7-2.3,1.726,0,.781.493,1.192,1.891,1.562l1.685.452c2.055.534,3.452,1.726,3.452,3.658C219.811,102.879,217.92,104.893,214.3,104.893Z" transform="translate(-169.504 -58.615)"/><path class="b" d="M263.7,104.823V92h7.809l-.288,1.726h-5.179V97.22H270.4v1.767h-4.274v3.987h5.631v1.808H263.7Z" transform="translate(-201.31 -58.791)"/><path class="b" d="M316.389,104.823l-1.151-3.37h-4.562l-1.151,3.37H307.1L311.744,92h2.713l4.48,12.823Zm-3.37-10.686h0s-1.48,4.685-1.808,5.549h3.452C314.539,99.4,313.142,94.63,313.018,94.137Z" transform="translate(-226.873 -58.791)"/><path class="b" d="M418.742,104.675a5.7,5.7,0,0,1-4.439-1.85,6.506,6.506,0,0,1-1.6-4.562,7.433,7.433,0,0,1,.945-3.9,5.9,5.9,0,0,1,5.178-2.959,6.058,6.058,0,0,1,3.494.986l-1.069,1.4a4.186,4.186,0,0,0-2.384-.74,3.17,3.17,0,0,0-2.795,1.521,6.21,6.21,0,0,0-.74,3.37,6.625,6.625,0,0,0,.534,3.165,3.29,3.29,0,0,0,3.124,1.808,3.914,3.914,0,0,0,2.507-.822l1.11,1.356A5.963,5.963,0,0,1,418.742,104.675Z" transform="translate(-289.071 -58.438)"/><path class="b" d="M472.61,104.823V98.9H467.8v5.918h-2.3V92h2.3v5.138h4.809V92h2.343v12.782H472.61Z" transform="translate(-320.17 -58.791)"/><path class="b" d="M127.949,13.533c-1.521-.863-3.041-1.233-7.11-1.233H113.4V37.905H118V15.752h3.617a5.194,5.194,0,0,1,3.863,1.274,4.18,4.18,0,0,1,1.11,3.206c0,3.041-1.562,4.521-5.014,4.521h-.863l-1.151,3.411h3.124c5.055,0,9.042-3.165,9.042-8.179A6.95,6.95,0,0,0,127.949,13.533Z" transform="translate(-112.783 -11.848)"/><path class="b" d="M119.421,101.8a10.542,10.542,0,0,0-2.178-2.548,3.412,3.412,0,0,0,3.493-3.493c0-2.014-1.439-3.658-4.562-3.658H111.9v12.782h2.3v-11.1h1.274c2.055,0,2.836.658,2.836,1.973a2.167,2.167,0,0,1-.616,1.562,3.344,3.344,0,0,1-2.3.534h-.164l-.658,1.562a1.3,1.3,0,0,1,.493.329,13.263,13.263,0,0,1,2.384,3.165l1.233,1.973h2.795Z" transform="translate(-111.9 -58.85)"/><path class="b" d="M369.921,101.8a10.543,10.543,0,0,0-2.178-2.548,3.412,3.412,0,0,0,3.493-3.493c0-2.014-1.438-3.658-4.562-3.658H362.4v12.782h2.3v-11.1h1.274c2.055,0,2.836.658,2.836,1.973a2.167,2.167,0,0,1-.617,1.562,3.344,3.344,0,0,1-2.3.534h-.164l-.658,1.562a1.3,1.3,0,0,1,.493.329,13.264,13.264,0,0,1,2.384,3.165l1.233,1.973h2.795Z" transform="translate(-259.445 -58.85)"/></g></g></g></svg>